. 
  
http://www.torrenting.com/        :     Greatest Movie Tracker on The Net!!!
 
http://www.Torrenting.com          :     Once & For all ;)


               www . Torrenting . Com 

(((((((((((((= Enjoy No RAR releases =))))))))))))))))))))


...................................NFO:....................................

.[img]http://img823.imageshack.us/img823/7254/vanishingonseventhstree.jpg[/img]

[color=blue][size=5][b]Vanishing On 7th Street 2010 R5 DVDRip XVID AC3 HQ Hive-CM8[/b][/size][/color]


[b]Thx Hive

CM8 Doing It Right The First Time :D

Sources:

Video: Russian DVD-5
Ischeznovenie.na.7-j.ulitze.2010.D.DVD.ELEKTRI4KA

Audio:
Inks 5.1 Audio 
thx, perfect audio. saved me lots of time making a similar one.
:)))

Encode:
well movie is dark throughout, added some brightness,contrast,rgb colours,chroma and sharpness

Video: 720x304 @bitrate 2000 2pass
Audio: English 5.1 @448
Sample: yes included[/b]


[url]http://www.imdb.com/title/tt1452628/[/url]


General
Complete name                    : Vanishing.on.7th.Street.2010.R5.DVDRip.XVID.AC3.HQ.Hive-CM8.avi
Format                           : AVI
Format/Info                      : Audio Video Interleave
File size                        : 1.50 GiB
Duration                         : 1h 27mn
Overall bit rate                 : 2 457 Kbps
Writing application              : Nandub v1.0rc2
Writing library                  : Nandub build 1853/release

Video
ID                               : 0
Format                           : MPEG-4 Visual
Format profile                   : Advanced Simple@L5
Format settings, BVOP            : Yes
Format settings, QPel            : Yes
Format settings, GMC             : No warppoints
Format settings, Matrix          : Default (H.263)
Muxing mode                      : Packed bitstream
Codec ID                         : XVID
Codec ID/Hint                    : XviD
Duration                         : 1h 27mn
Bit rate                         : 2 000 Kbps
Width                            : 720 pixels
Height                           : 304 pixels
Display aspect ratio             : 2.35:1
Frame rate                       : 25.000 fps
Color space                      : YUV
Chroma subsampling               : 4:2:0
Bit depth                        : 8 bits
Scan type                        : Progressive
Bits/(Pixel*Frame)               : 0.365
Stream size                      : 1.22 GiB (81%)
Writing library                  : XviD 1.2.1 (UTC 2008-12-04)

Audio
ID                               : 1
Format                           : AC-3
Format/Info                      : Audio Coding 3
Mode extension                   : CM (complete main)
Codec ID                         : 2000
Duration                         : 1h 27mn
Bit rate mode                    : Constant
Bit rate                         : 448 Kbps
Channel(s)                       : 6 channels
Channel positions                : Front: L C R, Side: L R, LFE
Sampling rate                    : 48.0 KHz
Bit depth                        : 16 bits
Stream size                      : 281 MiB (18%)
Alignment                        : Split accross interleaves
Interleave, duration             : 40 ms (1.00 video frame)
Interleave, preload duration     : 500 ms




Hayden Christensen ... 	Luke
John Leguizamo	... 	Paul
Thandie Newton	... 	Rosemary
Jacob Latimore	... 	James
Taylor Groothuis ... 	Briana
Jordan Trovillion ... 	Concession Girl
Arthur Cartwright ... 	Security Guard


When a massive power outage plunges the city of Detroit into total darkness, 
a disparate group of individuals find themselves alone. The entire city's 
population has vanished into thin air, leaving behind heaps of empty clothing, 
abandoned cars and lengthening shadows.



[img]http://img822.imageshack.us/img822/2513/vavas.png[/img]
[img]http://img847.imageshack.us/img847/9006/vavava.png[/img]
[img]http://img43.imageshack.us/img43/310/vavavavavavava.png[/img]
[img]http://img684.imageshack.us/img684/4489/97148963.png[/img]
[img]http://img545.imageshack.us/img545/3033/vavavavad.png[/img]
[img]http://img6.imageshack.us/img6/1204/vavavavava.png[/img]
[img]http://img859.imageshack.us/img859/9833/vavavavavava.png[/img]




Greetz

iNK,LUSi,,MAGNET,CLASSiFiED,THC,LEGi0N,T0XiC,IMAGiNE,ViSiON,WBZ,FLAWL3SS,NOVA
Vik,Rapeseed,D2U,SAFC,goldadvance,MEMORY100,KaN1vE,Unevano,Pinnz,Wayne,Mr Hive
and all P2P groups 
Great Work Guys :D

CM8@hushmail.com